<?xml version="1.0" encoding="utf-8"?>
<!-- Generator: Adobe Illustrator 15.1.0, SVG Export Plug-In . SVG Version: 6.00 Build 0)  -->
<!DOCTYPE svg PUBLIC "-//W3C//DTD SVG 1.1 Tiny//EN" "http://www.w3.org/Graphics/SVG/1.1/DTD/svg11-tiny.dtd">
<svg version="1.1" baseProfile="tiny" id="Layer_1" xmlns="http://www.w3.org/2000/svg" xmlns:xlink="http://www.w3.org/1999/xlink"
	 x="0px" y="0px" width="241.426px" height="39.185px" viewBox="0 0 241.426 39.185" xml:space="preserve">
<g>
	<polygon fill-rule="evenodd" fill="#010101" points="220.54,18.222 218.401,19.027 216.427,19.673 214.454,20.158 212.645,20.641 
		210.672,21.123 208.862,21.447 207.218,21.607 205.409,21.769 203.765,21.932 201.955,21.932 200.311,21.769 198.666,21.607 
		197.022,21.283 195.378,20.962 193.568,20.479 191.924,19.995 190.442,19.349 189.127,18.543 187.812,17.576 186.661,16.448 
		185.673,15.319 185.017,14.029 184.522,12.739 184.357,11.45 184.522,10.159 184.688,9.191 185.18,8.224 186.002,7.418 
		186.989,6.772 188.305,6.128 189.786,5.645 191.759,4.999 193.403,4.515 195.047,4.031 196.691,3.708 198.338,3.225 199.982,3.064 
		201.626,2.741 203.271,2.581 204.915,2.581 206.56,2.418 208.203,2.418 209.85,2.581 211.494,2.581 213.139,2.741 214.948,2.903 
		216.593,3.225 218.236,3.548 221.855,4.515 225.308,5.805 228.761,7.579 231.722,9.676 234.024,12.094 235.506,14.996 
		235.997,18.06 235.012,21.607 234.024,23.221 232.874,24.834 231.393,26.283 229.749,27.736 227.61,29.186 225.308,30.316 
		222.841,31.605 220.046,32.572 216.921,33.539 213.467,34.186 209.85,34.83 205.902,35.152 201.79,35.475 197.351,35.475 
		192.581,35.314 187.648,34.83 184.357,34.508 181.069,34.025 178.108,33.701 175.148,33.219 172.352,32.732 169.722,32.25 
		166.925,31.605 164.294,30.959 161.662,30.316 159.032,29.51 156.4,28.703 153.769,27.736 150.972,26.607 148.177,25.477 
		145.382,24.188 142.257,22.736 136.337,19.673 131.401,16.77 127.456,14.029 124.496,11.45 122.521,9.191 121.699,7.418 
		121.863,6.289 123.344,5.966 126.469,6.128 129.264,6.772 131.896,7.74 134.033,9.03 135.843,10.32 137.159,11.771 137.98,13.222 
		138.31,14.352 137.815,16.609 136.337,18.06 134.198,18.706 131.567,18.867 128.936,18.543 126.304,17.899 124,17.253 
		122.193,16.609 118.409,15.158 114.463,13.868 110.681,12.578 106.897,11.45 102.951,10.481 99.169,9.514 95.386,8.707 
		91.439,8.063 87.656,7.418 83.874,6.935 80.092,6.45 76.31,6.128 72.525,5.966 68.579,5.805 64.797,5.805 61.014,5.805 
		57.231,5.966 53.449,6.128 49.666,6.45 45.884,6.935 41.938,7.418 38.154,7.902 34.371,8.546 30.59,9.353 26.807,10.159 
		23.023,11.126 19.078,12.094 15.294,13.062 11.512,14.191 7.729,15.48 3.782,16.77 0,18.06 3.946,16.932 7.895,15.964 
		11.676,14.996 15.459,14.029 19.242,13.222 23.023,12.417 26.643,11.61 30.26,10.965 33.878,10.32 37.496,9.676 40.949,9.191 
		44.568,8.707 48.021,8.386 51.64,8.063 55.094,7.74 58.712,7.74 62.33,7.579 65.783,7.74 69.401,7.74 73.02,8.063 76.638,8.386 
		80.42,8.707 84.203,9.353 87.985,9.998 91.768,10.643 95.715,11.45 99.661,12.417 103.773,13.545 107.885,14.835 111.996,16.125 
		116.271,17.576 120.713,19.188 128.936,21.932 135.021,22.896 138.969,22.736 141.435,21.607 142.585,19.834 142.751,17.737 
		142.257,15.803 141.27,14.191 140.119,12.739 138.638,11.288 136.665,9.836 134.527,8.386 132.061,7.095 129.264,6.128 
		126.469,5.482 123.344,5.161 122.028,5.322 121.041,5.805 120.548,6.45 120.548,7.256 120.713,8.224 121.371,9.514 122.356,10.804 
		123.674,12.094 125.153,13.707 126.797,15.319 128.77,16.77 131.073,18.383 133.377,19.995 135.843,21.607 138.475,23.061 
		141.106,24.51 143.901,25.801 146.698,27.09 149.493,28.219 152.288,29.349 155.085,30.477 157.88,31.443 160.677,32.412 
		163.637,33.379 166.597,34.186 169.392,34.992 172.352,35.637 175.478,36.281 178.438,36.926 181.563,37.412 184.688,37.895 
		187.977,38.379 191.265,38.701 194.884,39.021 198.501,39.186 202.283,39.186 206.065,39.021 209.85,38.701 213.632,38.215 
		217.414,37.572 221.031,36.605 224.485,35.475 227.776,34.186 230.736,32.412 233.53,30.477 235.997,28.057 238.135,25.477 
		239.944,22.414 240.933,19.673 241.426,17.253 241.426,14.835 240.933,12.9 239.944,10.965 238.794,9.191 237.149,7.74 
		235.341,6.45 233.368,5.161 231.229,4.192 229.092,3.387 226.954,2.581 224.65,1.935 222.678,1.451 220.703,1.129 218.894,0.807 
		217.086,0.484 215.276,0.323 213.467,0.161 211.657,0.161 210.013,0 208.369,0 206.725,0 205.08,0.161 203.437,0.323 201.79,0.484 
		200.146,0.807 198.501,1.129 196.856,1.451 195.047,1.935 193.403,2.418 191.594,2.903 188.964,3.708 186.989,4.676 185.345,5.482 
		184.194,6.612 183.207,7.579 182.713,8.869 182.55,10.159 182.55,11.771 182.713,13.384 183.207,14.835 184.029,16.125 
		185.017,17.253 186.167,18.383 187.812,19.51 189.621,20.479 191.759,21.283 193.403,21.932 195.047,22.414 196.691,22.736 
		198.338,23.061 199.982,23.221 201.626,23.381 203.437,23.381 205.08,23.221 206.89,23.061 208.697,22.736 210.507,22.254 
		212.479,21.769 214.289,20.962 216.427,20.158 218.401,19.349 220.54,18.222 	"/>
</g>
</svg>
