<?xml version="1.0" encoding="utf-8"?>
<!-- Generator: Adobe Illustrator 15.1.0, SVG Export Plug-In . SVG Version: 6.00 Build 0)  -->
<!DOCTYPE svg PUBLIC "-//W3C//DTD SVG 1.1//EN" "http://www.w3.org/Graphics/SVG/1.1/DTD/svg11.dtd">
<svg version="1.1" id="Layer_1" xmlns="http://www.w3.org/2000/svg" xmlns:xlink="http://www.w3.org/1999/xlink" x="0px" y="0px"
	 width="241.426px" height="39.186px" viewBox="0 0 241.426 39.186" enable-background="new 0 0 241.426 39.186"
	 xml:space="preserve">
<g>
	<polygon fill="#A5652D" points="219.54,18.222 217.4,19.027 215.427,19.673 213.454,20.158 211.645,20.641 209.672,21.123 
		207.861,21.447 206.218,21.607 204.409,21.769 202.766,21.932 200.955,21.932 199.311,21.769 197.666,21.607 196.021,21.283 
		194.378,20.962 192.568,20.479 190.924,19.995 189.441,19.349 188.127,18.543 186.813,17.576 185.661,16.448 184.673,15.319 
		184.018,14.029 183.521,12.739 183.357,11.45 183.521,10.159 183.688,9.191 184.18,8.224 185.002,7.418 185.989,6.772 
		187.305,6.128 188.786,5.645 190.759,4.999 192.402,4.515 194.047,4.031 195.691,3.708 197.338,3.225 198.982,3.064 200.626,2.741 
		202.271,2.581 203.915,2.581 205.561,2.418 207.203,2.418 208.85,2.581 210.494,2.581 212.139,2.741 213.948,2.903 215.593,3.225 
		217.236,3.548 220.855,4.515 224.309,5.805 227.761,7.579 230.723,9.676 233.023,12.094 234.506,14.996 234.997,18.06 
		234.012,21.607 233.023,23.221 231.874,24.834 230.393,26.283 228.749,27.736 226.609,29.186 224.309,30.316 221.841,31.605 
		219.046,32.572 215.921,33.539 212.467,34.186 208.85,34.83 204.902,35.152 200.79,35.475 196.352,35.475 191.581,35.314 
		186.648,34.83 183.357,34.508 180.068,34.025 177.107,33.701 174.148,33.219 171.352,32.732 168.723,32.25 165.925,31.605 
		163.294,30.959 160.662,30.316 158.032,29.51 155.4,28.703 152.77,27.736 149.973,26.607 147.177,25.477 144.382,24.188 
		141.257,22.736 135.337,19.673 130.4,16.77 126.456,14.029 123.496,11.45 121.521,9.191 120.699,7.418 120.863,6.289 
		122.344,5.966 125.469,6.128 128.264,6.772 130.896,7.74 133.033,9.03 134.843,10.32 136.159,11.771 136.98,13.222 137.311,14.352 
		136.814,16.609 135.337,18.06 133.198,18.706 130.566,18.867 127.936,18.543 125.305,17.899 123,17.253 121.193,16.609 
		117.409,15.158 113.463,13.868 109.682,12.578 105.896,11.45 101.951,10.481 98.169,9.514 94.386,8.707 90.439,8.063 86.656,7.418 
		82.874,6.935 79.092,6.45 75.31,6.128 71.525,5.966 67.579,5.805 63.797,5.805 60.014,5.805 56.231,5.966 52.449,6.128 
		48.666,6.45 44.884,6.935 40.938,7.418 37.154,7.902 33.371,8.546 29.59,9.353 25.807,10.159 22.023,11.126 18.078,12.094 
		14.294,13.062 10.512,14.191 6.729,15.48 2.782,16.77 -1,18.06 2.946,16.932 6.895,15.964 10.676,14.996 14.459,14.029 
		18.242,13.222 22.023,12.417 25.643,11.61 29.26,10.965 32.878,10.32 36.496,9.676 39.949,9.191 43.568,8.707 47.021,8.385 
		50.64,8.063 54.094,7.74 57.712,7.74 61.33,7.579 64.783,7.74 68.401,7.74 72.02,8.063 75.638,8.385 79.42,8.707 83.203,9.353 
		86.984,9.998 90.768,10.643 94.715,11.45 98.661,12.417 102.773,13.545 106.885,14.835 110.996,16.125 115.271,17.576 
		119.713,19.188 127.936,21.932 134.021,22.896 137.969,22.736 140.436,21.607 141.585,19.834 141.751,17.737 141.257,15.802 
		140.27,14.191 139.119,12.739 137.639,11.288 135.665,9.836 133.527,8.385 131.061,7.094 128.264,6.128 125.469,5.482 
		122.344,5.161 121.027,5.322 120.041,5.805 119.548,6.45 119.548,7.256 119.713,8.224 120.371,9.514 121.355,10.804 
		122.674,12.094 124.152,13.707 125.797,15.319 127.77,16.77 130.073,18.383 132.377,19.995 134.843,21.607 137.475,23.061 
		140.105,24.51 142.9,25.801 145.698,27.09 148.493,28.219 151.288,29.349 154.085,30.477 156.88,31.443 159.677,32.412 
		162.637,33.379 165.598,34.186 168.393,34.992 171.352,35.637 174.479,36.281 177.438,36.926 180.563,37.412 183.688,37.895 
		186.977,38.379 190.266,38.701 193.884,39.021 197.501,39.186 201.283,39.186 205.064,39.021 208.85,38.701 212.632,38.215 
		216.414,37.572 220.031,36.605 223.484,35.475 226.775,34.186 229.736,32.412 232.529,30.477 234.997,28.057 237.135,25.477 
		238.943,22.414 239.934,19.673 240.426,17.253 240.426,14.835 239.934,12.9 238.943,10.965 237.794,9.191 236.148,7.74 
		234.341,6.45 232.368,5.161 230.229,4.192 228.092,3.387 225.954,2.581 223.65,1.935 221.678,1.451 219.703,1.129 217.895,0.807 
		216.086,0.484 214.275,0.323 212.467,0.161 210.657,0.161 209.014,0 207.369,0 205.725,0 204.08,0.161 202.438,0.323 200.79,0.484 
		199.146,0.807 197.501,1.129 195.855,1.451 194.047,1.935 192.402,2.418 190.594,2.903 187.964,3.708 185.989,4.676 184.346,5.482 
		183.193,6.612 182.207,7.579 181.713,8.869 181.55,10.159 181.55,11.771 181.713,13.384 182.207,14.835 183.029,16.125 
		184.018,17.253 185.167,18.383 186.813,19.51 188.621,20.479 190.759,21.283 192.402,21.932 194.047,22.414 195.691,22.736 
		197.338,23.061 198.982,23.221 200.626,23.381 202.438,23.381 204.08,23.221 205.891,23.061 207.697,22.736 209.507,22.254 
		211.479,21.769 213.289,20.962 215.427,20.158 217.4,19.349 	"/>
</g>
<g>
	<polygon fill="#E7EBCE" points="220.54,18.222 218.4,19.027 216.427,19.673 214.454,20.158 212.645,20.641 210.672,21.123 
		208.861,21.447 207.218,21.607 205.409,21.769 203.766,21.932 201.955,21.932 200.311,21.769 198.666,21.607 197.021,21.283 
		195.378,20.962 193.568,20.479 191.924,19.995 190.441,19.349 189.127,18.543 187.813,17.576 186.661,16.448 185.673,15.319 
		185.018,14.029 184.521,12.739 184.357,11.45 184.521,10.159 184.688,9.191 185.18,8.224 186.002,7.418 186.989,6.772 
		188.305,6.128 189.786,5.645 191.759,4.999 193.402,4.515 195.047,4.031 196.691,3.708 198.338,3.225 199.982,3.064 201.626,2.741 
		203.271,2.581 204.915,2.581 206.561,2.418 208.203,2.418 209.85,2.581 211.494,2.581 213.139,2.741 214.948,2.903 216.593,3.225 
		218.236,3.548 221.855,4.515 225.309,5.805 228.761,7.579 231.723,9.676 234.023,12.094 235.506,14.996 235.997,18.06 
		235.012,21.607 234.023,23.221 232.874,24.834 231.393,26.283 229.749,27.736 227.609,29.186 225.309,30.316 222.841,31.605 
		220.046,32.572 216.921,33.539 213.467,34.186 209.85,34.83 205.902,35.152 201.79,35.475 197.352,35.475 192.581,35.314 
		187.648,34.83 184.357,34.508 181.068,34.025 178.107,33.701 175.148,33.219 172.352,32.732 169.723,32.25 166.925,31.605 
		164.294,30.959 161.662,30.316 159.032,29.51 156.4,28.703 153.77,27.736 150.973,26.607 148.177,25.477 145.382,24.188 
		142.257,22.736 136.337,19.673 131.4,16.77 127.456,14.029 124.496,11.45 122.521,9.191 121.699,7.418 121.863,6.289 
		123.344,5.966 126.469,6.128 129.264,6.772 131.896,7.74 134.033,9.03 135.843,10.32 137.159,11.771 137.98,13.222 138.311,14.352 
		137.814,16.609 136.337,18.06 134.198,18.706 131.566,18.867 128.936,18.543 126.305,17.899 124,17.253 122.193,16.609 
		118.409,15.158 114.463,13.868 110.681,12.578 106.897,11.45 102.951,10.481 99.169,9.514 95.386,8.707 91.439,8.063 87.656,7.418 
		83.874,6.935 80.092,6.45 76.31,6.128 72.525,5.966 68.579,5.805 64.797,5.805 61.014,5.805 57.231,5.966 53.449,6.128 
		49.666,6.45 45.884,6.935 41.938,7.418 38.154,7.902 34.371,8.546 30.59,9.353 26.807,10.159 23.023,11.126 19.078,12.094 
		15.294,13.062 11.512,14.191 7.729,15.48 3.782,16.77 0,18.06 3.946,16.932 7.895,15.964 11.676,14.996 15.459,14.029 
		19.242,13.222 23.023,12.417 26.643,11.61 30.26,10.965 33.878,10.32 37.496,9.676 40.949,9.191 44.568,8.707 48.021,8.385 
		51.64,8.063 55.094,7.74 58.712,7.74 62.33,7.579 65.783,7.74 69.401,7.74 73.02,8.063 76.638,8.385 80.42,8.707 84.203,9.353 
		87.985,9.998 91.768,10.643 95.715,11.45 99.661,12.417 103.773,13.545 107.885,14.835 111.996,16.125 116.271,17.576 
		120.713,19.188 128.936,21.932 135.021,22.896 138.969,22.736 141.436,21.607 142.585,19.834 142.751,17.737 142.257,15.802 
		141.27,14.191 140.119,12.739 138.639,11.288 136.665,9.836 134.527,8.385 132.061,7.094 129.264,6.128 126.469,5.482 
		123.344,5.161 122.027,5.322 121.041,5.805 120.548,6.45 120.548,7.256 120.713,8.224 121.371,9.514 122.355,10.804 
		123.674,12.094 125.152,13.707 126.797,15.319 128.77,16.77 131.073,18.383 133.377,19.995 135.843,21.607 138.475,23.061 
		141.105,24.51 143.9,25.801 146.698,27.09 149.493,28.219 152.288,29.349 155.085,30.477 157.88,31.443 160.677,32.412 
		163.637,33.379 166.598,34.186 169.393,34.992 172.352,35.637 175.479,36.281 178.438,36.926 181.563,37.412 184.688,37.895 
		187.977,38.379 191.266,38.701 194.884,39.021 198.501,39.186 202.283,39.186 206.064,39.021 209.85,38.701 213.632,38.215 
		217.414,37.572 221.031,36.605 224.484,35.475 227.775,34.186 230.736,32.412 233.529,30.477 235.997,28.057 238.135,25.477 
		239.943,22.414 240.934,19.673 241.426,17.253 241.426,14.835 240.934,12.9 239.943,10.965 238.794,9.191 237.148,7.74 
		235.341,6.45 233.368,5.161 231.229,4.192 229.092,3.387 226.954,2.581 224.65,1.935 222.678,1.451 220.703,1.129 218.895,0.807 
		217.086,0.484 215.275,0.323 213.467,0.161 211.657,0.161 210.014,0 208.369,0 206.725,0 205.08,0.161 203.438,0.323 201.79,0.484 
		200.146,0.807 198.501,1.129 196.855,1.451 195.047,1.935 193.402,2.418 191.594,2.903 188.964,3.708 186.989,4.676 185.346,5.482 
		184.193,6.612 183.207,7.579 182.713,8.869 182.55,10.159 182.55,11.771 182.713,13.384 183.207,14.835 184.029,16.125 
		185.018,17.253 186.167,18.383 187.813,19.51 189.621,20.479 191.759,21.283 193.402,21.932 195.047,22.414 196.691,22.736 
		198.338,23.061 199.982,23.221 201.626,23.381 203.438,23.381 205.08,23.221 206.891,23.061 208.697,22.736 210.507,22.254 
		212.479,21.769 214.289,20.962 216.427,20.158 218.4,19.349 	"/>
</g>
</svg>
