<svg xmlns="http://www.w3.org/2000/svg" width="241.426" height="39.186" viewBox="0 0 241.426 39.186"><path fill="#A5652D" d="M219.54 18.222l-2.14.805-1.973.646-1.973.485-1.81.483-1.972.483-1.81.324-1.644.16-1.81.162-1.642.162h-1.81l-1.645-.163-1.644-.163-1.645-.324-1.642-.32-1.81-.484-1.644-.485-1.483-.646-1.313-.807-1.314-.967-1.152-1.128-.987-1.13-.655-1.29-.497-1.29-.163-1.288.164-1.29.168-.97.492-.966.822-.806.987-.646 1.315-.644 1.48-.483L190.76 5l1.642-.485 1.645-.484 1.644-.322 1.648-.483 1.644-.16 1.644-.324 1.645-.16h1.645l1.646-.162h1.643l1.647.163h1.644l1.645.16 1.808.163 1.645.322 1.643.323 3.62.967 3.453 1.29 3.45 1.774 2.963 2.096 2.3 2.418 1.483 2.902.49 3.064-.984 3.547-.99 1.614-1.148 1.614-1.48 1.45-1.645 1.452-2.14 1.45-2.3 1.13-2.47 1.29-2.794.966-3.125.967-3.453.646-3.617.644-3.948.322-4.112.323h-4.438l-4.77-.16-4.934-.485-3.29-.322-3.29-.483-2.96-.324-2.96-.48-2.796-.488-2.63-.482-2.797-.645-2.63-.646-2.633-.644-2.63-.806-2.632-.807-2.63-.967-2.797-1.13-2.796-1.13-2.795-1.288-3.125-1.452-5.92-3.063-4.937-2.903-3.944-2.74-2.96-2.58-1.975-2.26-.82-1.772.163-1.13 1.48-.322 3.126.162 2.794.644 2.632.968 2.137 1.29 1.81 1.29 1.316 1.45.82 1.452.33 1.13-.496 2.257-1.477 1.45-2.14.646-2.63.16-2.63-.323-2.632-.644-2.305-.647-1.807-.644-3.784-1.452-3.947-1.29-3.78-1.29-3.787-1.128-3.945-.97-3.78-.966-3.784-.807-3.947-.644-3.784-.645-3.782-.483-3.782-.485-3.782-.322-3.785-.162-3.946-.16h-7.566l-3.783.16-3.78.162-3.784.322-3.782.485-3.946.483-3.784.484-3.783.644-3.78.807-3.783.806-3.784.966-3.945.968-3.784.968-3.782 1.13L6.73 15.48 2.78 16.77-1 18.06l3.946-1.128 3.95-.968 3.78-.968 3.783-.967 3.782-.808 3.78-.805 3.62-.807 3.618-.645 3.618-.645 3.618-.644 3.453-.485 3.618-.483 3.453-.322 3.62-.322 3.454-.323h3.618l3.618-.16 3.453.16H68.4l3.62.323 3.618.322 3.782.322 3.783.646 3.78.645 3.785.645 3.947.807 3.946.967 4.113 1.128 4.112 1.29 4.11 1.29 4.276 1.45 4.443 1.613 8.223 2.744 6.085.964 3.95-.16 2.466-1.13 1.15-1.772.165-2.097-.493-1.935-.987-1.61-1.15-1.453-1.48-1.452-1.975-1.452-2.138-1.45-2.466-1.292-2.796-.966-2.795-.646-3.126-.32-1.317.16-.986.483-.492.645v.806l.165.968.658 1.29.985 1.29 1.32 1.29 1.477 1.613 1.645 1.612 1.973 1.45 2.303 1.613 2.304 1.612 2.466 1.612 2.632 1.454 2.63 1.45 2.795 1.29 2.798 1.29 2.795 1.13 2.795 1.13 2.797 1.127 2.795.966 2.797.97 2.96.966 2.96.806 2.796.806 2.96.645 3.126.644 2.958.646 3.125.486 3.125.483 3.29.484 3.288.32 3.618.32 3.617.166h3.783l3.78-.165 3.787-.32 3.782-.485 3.782-.643 3.617-.967 3.454-1.13 3.29-1.29 2.962-1.773 2.793-1.935 2.467-2.42 2.138-2.58 1.808-3.063.99-2.74.493-2.42v-2.42l-.492-1.934-.99-1.935-1.15-1.774-1.646-1.45-1.807-1.29-1.972-1.29-2.14-.968-2.136-.805-2.138-.806-2.304-.645-1.972-.484-1.975-.32-1.808-.323-1.81-.323-1.81-.16-1.808-.163h-1.81L209.014 0h-3.29l-1.645.16-1.642.163-1.648.16-1.644.324-1.645.322-1.645.32-1.808.485-1.645.483-1.808.485-2.63.805-1.975.968-1.644.806-1.153 1.13-.986.967-.494 1.29-.163 1.29v1.61l.163 1.614.494 1.45.822 1.29.988 1.13 1.15 1.13 1.645 1.126 1.808.97 2.14.803 1.642.65 1.645.48 1.644.323 1.648.325 1.644.16 1.644.16h1.812l1.642-.16 1.81-.16 1.807-.324 1.81-.482 1.972-.485 1.81-.808 2.137-.804 1.973-.81"/><path fill="#E7EBCE" d="M220.54 18.222l-2.14.805-1.973.646-1.973.485-1.81.483-1.972.483-1.81.324-1.644.16-1.81.162-1.642.162h-1.81l-1.645-.163-1.644-.163-1.645-.324-1.642-.32-1.81-.484-1.644-.485-1.483-.646-1.313-.807-1.314-.967-1.152-1.128-.987-1.13-.655-1.29-.497-1.29-.163-1.288.164-1.29.168-.97.492-.966.822-.806.987-.646 1.315-.644 1.48-.483L191.76 5l1.642-.485 1.645-.484 1.644-.322 1.648-.483 1.644-.16 1.644-.324 1.645-.16h1.645l1.646-.162h1.643l1.647.163h1.644l1.645.16 1.808.163 1.645.322 1.643.323 3.62.967 3.453 1.29 3.45 1.774 2.963 2.096 2.3 2.418 1.483 2.902.49 3.064-.984 3.547-.99 1.614-1.148 1.614-1.48 1.45-1.645 1.452-2.14 1.45-2.3 1.13-2.47 1.29-2.794.966-3.125.967-3.453.646-3.617.644-3.948.322-4.112.323h-4.438l-4.77-.16-4.934-.485-3.29-.322-3.29-.483-2.96-.324-2.96-.48-2.796-.488-2.63-.482-2.797-.645-2.63-.646-2.633-.644-2.63-.806-2.632-.807-2.63-.967-2.797-1.13-2.796-1.13-2.795-1.288-3.125-1.452-5.92-3.063-4.937-2.903-3.944-2.74-2.96-2.58-1.975-2.26-.82-1.772.163-1.13 1.48-.322 3.126.162 2.794.644 2.632.968 2.137 1.29 1.81 1.29 1.316 1.45.82 1.452.33 1.13-.496 2.257-1.477 1.45-2.14.646-2.63.16-2.63-.323-2.632-.644-2.305-.647-1.807-.644-3.784-1.452-3.947-1.29-3.782-1.29-3.783-1.128-3.946-.97-3.78-.966-3.784-.807-3.947-.644-3.784-.645-3.782-.483-3.782-.485-3.782-.322-3.785-.162-3.946-.16h-7.566l-3.783.16-3.78.162-3.784.322-3.782.485-3.946.483-3.784.484-3.783.644-3.78.807-3.783.806-3.784.966-3.945.968-3.784.968-3.782 1.13L7.73 15.48 3.78 16.77 0 18.06l3.946-1.128 3.95-.968 3.78-.968 3.783-.967 3.782-.808 3.78-.805 3.62-.807 3.618-.645 3.618-.645 3.618-.644 3.453-.485 3.618-.483 3.453-.322 3.62-.322 3.454-.323h3.618l3.618-.16 3.453.16H69.4l3.62.323 3.618.322 3.782.322 3.783.646 3.782.645 3.783.645 3.947.807 3.946.967 4.113 1.128 4.112 1.29 4.11 1.29 4.276 1.45 4.443 1.613 8.223 2.744 6.085.964 3.95-.16 2.466-1.13 1.15-1.772.165-2.097-.493-1.935-.987-1.61-1.15-1.453-1.48-1.452-1.975-1.452-2.138-1.45-2.466-1.292-2.796-.966-2.795-.646-3.126-.32-1.317.16-.986.483-.492.645v.806l.165.968.658 1.29.985 1.29 1.32 1.29 1.477 1.613 1.645 1.612 1.973 1.45 2.303 1.613 2.304 1.612 2.466 1.612 2.632 1.454 2.63 1.45 2.795 1.29 2.798 1.29 2.795 1.13 2.795 1.13 2.797 1.127 2.795.966 2.797.97 2.96.966 2.96.806 2.796.806 2.96.645 3.126.644 2.958.646 3.125.486 3.125.483 3.29.484 3.288.32 3.618.32 3.617.166h3.783l3.78-.165 3.787-.32 3.782-.485 3.782-.643 3.617-.967 3.454-1.13 3.29-1.29 2.962-1.773 2.793-1.935 2.467-2.42 2.138-2.58 1.808-3.063.99-2.74.493-2.42v-2.42l-.492-1.934-.99-1.935-1.15-1.774-1.646-1.45-1.807-1.29-1.972-1.29-2.14-.968-2.136-.805-2.138-.806-2.304-.645-1.972-.484-1.975-.32-1.808-.323-1.81-.323-1.81-.16-1.808-.163h-1.81L210.014 0h-3.29l-1.645.16-1.642.163-1.648.16-1.644.324-1.645.322-1.645.32-1.808.485-1.645.483-1.808.485-2.63.805-1.975.968-1.644.806-1.153 1.13-.986.967-.494 1.29-.163 1.29v1.61l.163 1.614.494 1.45.822 1.29.988 1.13 1.15 1.13 1.645 1.126 1.808.97 2.14.803 1.642.65 1.645.48 1.644.323 1.648.325 1.644.16 1.644.16h1.812l1.642-.16 1.81-.16 1.807-.324 1.81-.482 1.972-.485 1.81-.808 2.137-.804 1.973-.81"/></svg>